<svg width="600" height="400" viewBox="0 0 600 400" fill="none" xmlns="http://www.w3.org/2000/svg">
  <rect width="600" height="400" fill="white" fill-opacity="0"/>

  <!-- Background Elements -->
  <circle cx="100" cy="100" r="50" fill="#14B8A6" fill-opacity="0.1"/>
  <circle cx="500" cy="300" r="80" fill="#14B8A6" fill-opacity="0.1"/>
  <circle cx="300" cy="150" r="30" fill="#14B8A6" fill-opacity="0.1"/>

  <!-- Code Window -->
  <rect x="100" y="50" width="400" height="300" rx="8" fill="#1E293B"/>
  <rect x="100" y="50" width="400" height="30" rx="8" fill="#334155"/>

  <!-- Window Controls -->
  <circle cx="120" cy="65" r="6" fill="#EF4444"/>
  <circle cx="140" cy="65" r="6" fill="#F59E0B"/>
  <circle cx="160" cy="65" r="6" fill="#10B981"/>

  <!-- Code Lines -->
  <rect x="120" y="100" width="150" height="10" rx="2" fill="#60A5FA"/>
  <rect x="120" y="120" width="200" height="10" rx="2" fill="#818CF8"/>
  <rect x="150" y="140" width="250" height="10" rx="2" fill="#F472B6"/>
  <rect x="150" y="160" width="180" height="10" rx="2" fill="#F472B6"/>
  <rect x="120" y="180" width="100" height="10" rx="2" fill="#60A5FA"/>
  <rect x="120" y="200" width="280" height="10" rx="2" fill="#818CF8"/>
  <rect x="150" y="220" width="200" height="10" rx="2" fill="#F472B6"/>
  <rect x="150" y="240" width="230" height="10" rx="2" fill="#F472B6"/>
  <rect x="120" y="260" width="180" height="10" rx="2" fill="#60A5FA"/>
  <rect x="120" y="280" width="250" height="10" rx="2" fill="#818CF8"/>

  <!-- Line Numbers -->
  <text x="110" y="105" font-family="monospace" font-size="10" fill="#64748B">1</text>
  <text x="110" y="125" font-family="monospace" font-size="10" fill="#64748B">2</text>
  <text x="110" y="145" font-family="monospace" font-size="10" fill="#64748B">3</text>
  <text x="110" y="165" font-family="monospace" font-size="10" fill="#64748B">4</text>
  <text x="110" y="185" font-family="monospace" font-size="10" fill="#64748B">5</text>
  <text x="110" y="205" font-family="monospace" font-size="10" fill="#64748B">6</text>
  <text x="110" y="225" font-family="monospace" font-size="10" fill="#64748B">7</text>
  <text x="110" y="245" font-family="monospace" font-size="10" fill="#64748B">8</text>
  <text x="110" y="265" font-family="monospace" font-size="10" fill="#64748B">9</text>
  <text x="105" y="285" font-family="monospace" font-size="10" fill="#64748B">10</text>

  <!-- Code Accent Elements -->
  <circle cx="530" cy="200" r="20" fill="#14B8A6" fill-opacity="0.8"/>
  <circle cx="70" cy="150" r="15" fill="#14B8A6" fill-opacity="0.8"/>
  <circle cx="470" cy="330" r="10" fill="#14B8A6" fill-opacity="0.8"/>
</svg>